<?xml version="1.0" standalone="no"?>
<!DOCTYPE svg PUBLIC "-//W3C//DTD SVG 20010904//EN"
 "http://www.w3.org/TR/2001/REC-SVG-20010904/DTD/svg10.dtd">
<svg version="1.0" xmlns="http://www.w3.org/2000/svg"
 width="1025.000000pt" height="1025.000000pt" viewBox="0 0 1025.000000 1025.000000"
 preserveAspectRatio="xMidYMid meet">
<metadata>
Created by potrace 1.11, written by Peter Selinger 2001-2013
</metadata>
<g transform="translate(0.000000,1025.000000) scale(0.100000,-0.100000)"
fill="#000000" stroke="none">
<path d="M6401 8524 c0 -775 5 -1445 10 -1489 69 -619 427 -1161 973 -1474
156 -88 384 -174 551 -207 11 -2 31 -6 45 -9 14 -2 45 -7 70 -10 25 -3 58 -8
73 -11 36 -7 352 -8 392 0 17 3 52 8 79 11 122 14 322 68 456 122 589 241
1039 783 1160 1397 38 188 38 210 39 1660 1 781 -1 1418 -4 1415 -3 -2 -295
-294 -651 -649 -355 -354 -648 -640 -652 -635 -4 6 -41 9 -82 8 -90 -3 -69 -3
-215 0 -66 1 -128 -1 -137 -5 -10 -5 -18 -5 -18 -1 0 10 -162 9 -178 -1 -7 -4
-12 -4 -12 1 0 4 -35 7 -77 5 -43 -1 -82 -2 -88 -2 -5 0 -64 1 -130 3 -66 1
-128 -1 -137 -5 -10 -5 -18 -5 -18 -1 0 4 -38 8 -84 7 l-83 -1 -624 624 c-343
343 -632 631 -642 640 -17 16 -17 -44 -16 -1393z m1223 -859 c122 -37 204
-146 211 -279 8 -156 -81 -282 -228 -320 -204 -53 -386 84 -394 295 -2 66 2
84 26 135 31 63 50 87 105 129 69 53 184 69 280 40z m1637 -13 c210 -102 238
-401 52 -536 -78 -57 -175 -75 -270 -50 -128 33 -216 136 -229 267 -15 151 71
288 208 333 62 20 183 13 239 -14z"/>
<path d="M668 8655 c-1 -2 -30 -4 -63 -6 -279 -11 -532 -230 -591 -510 -17
-84 -12 -231 11 -309 59 -195 229 -371 417 -434 62 -20 88 -25 178 -31 119 -9
155 -14 222 -35 182 -57 334 -206 406 -402 l27 -73 2 -1295 c2 -712 4 -1932 6
-2710 1 -778 6 -1426 10 -1440 4 -14 10 -38 12 -55 12 -64 49 -183 78 -250
187 -424 568 -711 1022 -772 33 -4 890 -8 1905 -8 l1845 0 60 28 c83 39 148
110 175 191 19 57 21 85 20 277 -2 231 -12 307 -54 403 -74 167 -226 304 -399
358 -73 23 -144 31 -247 30 -41 -1 -84 -2 -95 -2 -237 0 -304 0 -325 1 -14 0
-43 2 -65 3 -22 1 -50 -2 -62 -6 -13 -4 -23 -4 -23 0 0 7 2513 1894 2531 1900
5 2 9 -559 9 -1442 0 -1002 3 -1461 11 -1496 21 -97 120 -203 218 -232 35 -10
138 -13 426 -13 l380 0 56 26 c76 36 129 86 165 156 l29 58 3 2103 c2 1830 0
2102 -12 2102 -8 0 -45 -7 -83 -16 -205 -48 -366 -67 -553 -67 -138 0 -252 9
-380 28 -147 23 -154 24 -285 60 -539 148 -1021 471 -1356 910 -139 182 -235
348 -344 600 -37 86 -119 351 -129 419 -1 9 -5 18 -9 22 -10 10 -49 11 -75 2
-15 -5 -21 -4 -17 2 3 5 0 8 -7 6 -7 -3 -69 -7 -138 -11 -138 -6 -179 -10
-325 -31 -112 -15 -119 -16 -265 -45 -234 -46 -555 -144 -740 -226 -25 -11
-83 -37 -130 -58 -95 -42 -316 -160 -341 -181 -8 -8 -19 -14 -23 -14 -10 0
-211 -135 -301 -203 -303 -228 -596 -531 -819 -846 l-66 -95 -1 895 c0 492 -2
912 -4 934 -12 129 -16 165 -26 215 -122 617 -502 1118 -1051 1384 -114 55
-211 96 -268 111 -107 30 -169 46 -190 50 -90 16 -176 27 -250 31 -47 3 -90 7
-97 9 -6 2 -13 2 -15 0z"/>
</g>
</svg>
