<?xml version="1.0" standalone="no"?>
<!DOCTYPE svg PUBLIC "-//W3C//DTD SVG 20010904//EN"
 "http://www.w3.org/TR/2001/REC-SVG-20010904/DTD/svg10.dtd">
<svg version="1.0" xmlns="http://www.w3.org/2000/svg"
 width="1025.000000pt" height="1025.000000pt" viewBox="0 0 1025.000000 1025.000000"
 preserveAspectRatio="xMidYMid meet">
<metadata>
Created by potrace 1.11, written by Peter Selinger 2001-2013
</metadata>
<g transform="translate(0.000000,1025.000000) scale(0.100000,-0.100000)"
fill="#000000" stroke="none">
<path d="M3885 10226 c-38 -13 -83 -27 -100 -30 -66 -16 -327 -122 -435 -177
-63 -33 -158 -89 -210 -127 -93 -66 -334 -295 -401 -381 -19 -24 -39 -48 -44
-55 -15 -16 -133 -173 -175 -232 -69 -98 -185 -282 -258 -409 -65 -113 -262
-496 -262 -510 0 -2 -12 -30 -26 -62 -136 -298 -267 -726 -319 -1040 -3 -18
-7 -45 -10 -60 -2 -16 -7 -48 -10 -73 -6 -55 -16 -128 -20 -157 -20 -128 -27
-680 -12 -868 12 -149 31 -320 43 -380 5 -24 22 -119 30 -160 40 -225 138
-512 238 -700 127 -240 286 -426 650 -760 217 -200 222 -247 31 -310 -43 -14
-87 -27 -99 -30 -282 -59 -472 -129 -557 -207 -80 -73 -143 -187 -173 -313
-27 -119 -30 -139 -41 -352 l-6 -112 48 4 c26 2 116 6 198 10 83 3 191 8 240
10 50 3 158 7 240 10 83 3 193 8 245 10 52 3 165 7 250 10 85 3 209 7 275 10
66 3 179 8 250 10 72 2 216 7 320 11 105 3 244 8 310 9 66 2 257 7 425 11 734
18 1564 3 1800 -31 14 -2 52 -7 85 -10 50 -5 146 -22 293 -51 126 -25 306
-103 385 -168 133 -110 275 -372 304 -562 35 -232 -60 -478 -271 -703 -115
-122 -290 -224 -440 -257 -90 -19 -236 -15 -321 10 -27 8 -67 20 -87 26 -88
26 -498 254 -718 399 -52 34 -218 111 -295 136 -133 43 -265 35 -380 -23 -78
-40 -175 -146 -223 -244 -185 -379 5 -735 533 -1001 219 -110 503 -209 750
-262 81 -17 179 -35 220 -41 28 -3 59 -8 70 -10 126 -25 609 -25 688 1 7 2 30
6 52 9 22 2 76 14 120 26 125 33 169 50 295 112 243 120 480 322 660 562 208
276 330 562 384 891 14 85 15 441 2 517 -2 16 -7 47 -11 70 -33 199 -91 427
-177 700 l-30 97 65 108 c194 324 305 600 342 853 3 19 8 44 10 56 25 117 25
492 0 684 -11 90 -16 119 -30 190 -3 14 -8 41 -11 60 -10 62 -54 222 -90 329
-185 554 -504 935 -981 1171 -227 112 -457 178 -773 222 -149 21 -577 17 -765
-7 -16 -2 -56 -7 -89 -10 -32 -4 -68 -8 -80 -10 -11 -2 -43 -6 -71 -10 -101
-13 -119 -15 -144 -20 -14 -2 -44 -7 -66 -10 -55 -9 -84 -13 -210 -36 -60 -10
-121 -21 -135 -23 -14 -3 -43 -7 -65 -11 -22 -3 -76 -12 -120 -20 -44 -8 -100
-17 -125 -20 -25 -3 -56 -8 -70 -10 -14 -2 -52 -7 -85 -11 -33 -3 -69 -8 -80
-10 -24 -5 -241 -6 -270 -1 -58 9 -101 21 -112 30 -7 5 -13 6 -13 2 0 -7 -62
36 -89 63 -22 22 -49 111 -44 146 9 66 40 131 85 181 64 71 139 109 253 129
17 3 41 8 55 11 14 3 65 7 115 10 327 19 438 57 587 201 63 61 115 130 191
254 57 95 201 375 209 409 2 8 -13 19 -37 27 -22 8 -49 18 -60 23 -11 5 -58
24 -105 41 -214 80 -368 175 -442 272 -59 77 -81 148 -117 378 -16 101 -37
161 -79 226 -60 92 -143 153 -294 217 -86 37 -299 100 -368 109 -19 3 -60 10
-90 16 -30 6 -86 16 -125 23 -38 6 -73 13 -76 15 -3 2 2 50 12 106 9 57 20
121 23 143 5 32 77 471 100 615 14 84 18 120 15 120 -2 0 -35 -11 -74 -24z
m410 -1759 c22 -6 59 -29 82 -51 58 -53 85 -111 84 -184 0 -174 -159 -296
-323 -248 -176 51 -241 273 -122 415 28 34 96 71 145 79 49 9 75 7 134 -11z"/>
</g>
</svg>
