<?xml version="1.0" standalone="no"?>
<!DOCTYPE svg PUBLIC "-//W3C//DTD SVG 20010904//EN" "http://www.w3.org/TR/2001/REC-SVG-20010904/DTD/svg10.dtd">
<svg version="1.0" xmlns="http://www.w3.org/2000/svg" width="899.000000pt" height="899.000000pt"
  viewBox="0 0 899.000000 899.000000" preserveAspectRatio="xMidYMid meet">
  <metadata>
    Created by potrace 1.11, written by Peter Selinger 2001-2013
  </metadata>
  <g transform="translate(0.000000,899.000000) scale(0.100000,-0.100000)" fill="#ED7035" stroke="none">
    <path d="M4170 8973 c-25 -8 -52 -16 -60 -18 -72 -16 -370 -125 -448 -163
-256 -127 -454 -307 -701 -637 -511 -684 -887 -1586 -947 -2270 -3 -33 -7 -66
-10 -73 -7 -24 -18 -284 -18 -432 1 -178 13 -400 29 -520 4 -25 8 -61 11 -80
7 -55 25 -157 44 -250 6 -30 13 -65 16 -77 29 -147 126 -415 204 -566 118
-229 230 -361 649 -762 135 -129 154 -165 105 -208 -37 -32 -93 -52 -295 -102
-276 -69 -361 -107 -453 -199 -55 -55 -119 -159 -131 -214 -38 -169 -41 -188
-51 -364 l-6 -118 28 -1 c110 -3 378 -15 544 -24 30 -2 120 -6 200 -10 80 -3
165 -8 190 -10 25 -2 110 -7 190 -10 80 -3 174 -8 210 -10 36 -3 133 -7 215
-10 83 -3 188 -8 235 -10 541 -27 1755 -27 2240 1 58 3 103 4 100 1 -20 -20
-321 -161 -455 -214 -49 -19 -117 -45 -150 -58 -183 -72 -530 -173 -715 -209
-14 -3 -70 -14 -125 -26 -55 -11 -113 -22 -130 -25 -16 -2 -43 -6 -60 -9 -16
-2 -66 -10 -110 -16 -44 -6 -90 -13 -102 -15 -12 -2 -57 -6 -100 -10 -43 -4
-89 -8 -103 -11 -149 -25 -939 -24 -1090 1 -14 2 -54 6 -90 9 -36 4 -75 8 -85
10 -11 2 -47 7 -80 10 -65 8 -106 14 -145 21 -14 3 -41 7 -60 10 -423 68 -923
220 -1320 402 -239 110 -397 200 -695 395 -233 153 -350 204 -408 177 -64 -29
-38 -157 74 -369 71 -132 233 -380 268 -410 3 -3 31 -34 61 -70 121 -145 341
-347 499 -460 34 -25 81 -59 104 -76 169 -123 507 -307 772 -418 50 -21 104
-44 120 -51 138 -61 572 -198 765 -240 8 -2 76 -17 150 -34 74 -16 149 -33
165 -36 138 -24 199 -35 235 -39 19 -3 49 -7 65 -9 17 -3 57 -8 90 -12 32 -4
66 -8 75 -10 8 -2 51 -6 95 -10 44 -4 94 -9 110 -10 248 -26 946 -26 1135 -1
14 2 61 7 105 11 44 4 89 9 100 11 11 2 58 9 105 15 192 24 635 119 758 163
23 8 42 13 42 11 0 -7 346 113 465 161 302 123 626 294 853 451 124 86 296
217 352 267 152 139 277 264 336 336 16 19 34 40 41 45 6 6 49 60 95 122 260
349 410 688 478 1083 33 184 33 479 2 670 -11 69 -23 134 -25 145 -24 101 -53
202 -82 282 -19 52 -37 118 -40 146 -64 515 -343 1011 -725 1293 -254 187
-570 318 -945 390 -123 24 -319 36 -495 30 -107 -3 -206 -8 -220 -10 -14 -2
-59 -7 -100 -11 -41 -3 -88 -8 -105 -10 -85 -11 -133 -17 -160 -21 -16 -2 -46
-6 -65 -9 -84 -11 -179 -26 -225 -35 -61 -12 -100 -18 -148 -24 -20 -3 -62
-10 -94 -15 -32 -6 -80 -13 -108 -17 -27 -3 -68 -9 -90 -14 -22 -5 -65 -11
-95 -15 -30 -3 -62 -8 -70 -10 -30 -8 -197 -18 -270 -17 -119 2 -237 39 -282
89 -73 81 -54 216 45 317 74 74 184 114 362 131 133 12 150 14 200 20 214 27
340 103 479 290 48 65 65 91 126 200 33 59 148 288 152 303 2 9 -29 25 -87 47
-362 133 -510 236 -574 401 -20 52 -22 62 -46 209 -20 125 -22 133 -46 198
-58 155 -240 258 -619 352 -117 29 -171 40 -289 60 -13 2 -25 6 -27 8 -2 2 0
28 6 58 5 30 12 72 15 94 11 79 15 101 30 195 9 52 18 106 20 120 9 53 64 387
70 418 6 36 7 36 -55 15z m498 -1869 c132 -66 161 -252 55 -352 -88 -81 -213
-80 -297 3 -67 68 -84 159 -45 245 27 60 45 79 104 106 65 31 118 30 183 -2z" />
  </g>
</svg>