<svg width="1024" height="1024" viewBox="0 0 1024 1024" fill="none" xmlns="http://www.w3.org/2000/svg">
<g filter="url(#filter0_d_306_34)">
<rect x="99" y="99" width="826" height="826" rx="180" fill="white"/>
</g>
<g filter="url(#filter1_d_306_34)">
<path d="M568.746 743.096H568.701C534.148 743.096 496.9 742.338 454.814 740.779C418.867 739.448 385.307 737.744 358.342 736.374L358.192 736.365H358.146H358.136C331.777 735.027 310.953 733.968 297.254 733.696C297.489 726.657 297.728 720.33 298.275 714.184C298.745 708.063 299.747 701.989 301.271 696.026C302.665 690.484 304.977 685.191 308.122 680.345C311.345 675.49 315.642 671.367 320.712 668.264C330.684 662.121 345.018 658.871 357.666 656.004H357.672H357.688C364.787 654.394 371.491 652.874 376.254 651.057C381.534 649.042 383.952 646.851 383.864 644.162C383.712 639.543 376.048 632.883 365.441 623.671L365.436 623.667C358.298 617.468 349.415 609.751 340.717 600.738C331.307 591.175 323.081 580.611 316.201 569.254C309.822 558.308 304.643 546.764 300.745 534.805C296.548 522.055 293.319 509.033 291.082 495.841C288.778 482.408 287.261 468.864 286.537 455.27C285.816 442.144 285.781 428.932 286.429 416.003C287.017 404.084 288.237 392.2 290.086 380.398C291.782 369.66 294.055 358.884 296.852 348.371C299.441 338.628 302.459 329.075 306.076 319.165C309.263 310.429 312.871 301.551 317.104 292.026C324.622 275.123 333.156 258.647 342.662 242.682C351.065 228.508 360.303 214.801 370.331 201.625C380.075 188.883 388.947 178.625 397.442 170.253C405.767 161.851 415.144 154.46 425.362 148.246C429.594 145.74 433.975 143.474 438.484 141.458C442.698 139.564 447.169 137.777 452.151 136.005C461.411 132.712 471.03 129.978 480.331 127.341L480.479 127.299C483.115 126.55 485.836 125.775 488.514 125C487.202 132.688 485.898 140.322 484.602 147.901L482.69 159.094L482.312 161.298L480.563 171.536C478.713 182.366 476.859 193.22 474.981 204.211C482.74 205.307 489.836 206.541 496.685 207.982C504.263 209.578 511.626 211.443 519.187 213.682C525.98 215.694 534.749 218.527 542.335 222.603C545.817 224.432 549.061 226.645 552.001 229.197C554.813 231.647 557.143 234.556 558.882 237.789C561.863 243.471 562.893 250.255 563.982 257.439V257.45C565.359 266.533 566.784 275.925 572.413 283.42C575.131 286.919 578.411 289.985 582.132 292.507C586.342 295.402 590.81 297.94 595.484 300.092C605.736 304.949 618.269 309.24 628.339 312.689L628.351 312.693C624.581 320.223 621.43 326.474 618.08 332.667C614.175 339.884 610.6 345.861 607.151 350.943C603.582 356.339 599.468 361.39 594.868 366.022C592.734 368.138 590.439 370.101 588.003 371.895C585.664 373.614 583.166 375.124 580.537 376.406C570.253 381.381 558.245 382.325 546.636 383.239C540.887 383.59 535.161 384.226 529.481 385.142C526.835 385.603 524.227 386.248 521.679 387.071C519.233 387.858 516.885 388.902 514.679 390.182C509.903 392.998 505.989 396.966 503.329 401.685C502.088 403.875 501.214 406.237 500.74 408.685C500.287 410.989 500.334 413.357 500.876 415.643C501.319 417.436 502.115 419.134 503.222 420.644C504.463 422.311 506.013 423.747 507.796 424.882C511.893 427.544 517.547 429.192 524.603 429.78C526.689 429.952 529.006 430.038 531.488 430.038C538.762 430.038 547.706 429.321 559.635 427.78C570.305 426.402 582.083 424.531 594.549 422.552C598.467 421.929 601.779 421.404 605.205 420.867C633.494 416.434 666.201 411.699 696.353 411.699H696.913C727.184 411.742 757.106 417.877 784.723 429.705C797.093 435.002 808.809 441.593 819.655 449.356C829.458 456.32 838.241 464.503 845.771 473.687C852.33 481.763 858.179 490.342 863.258 499.336C867.809 507.422 871.642 515.858 874.715 524.554C879.963 539.363 883.279 555.269 885.47 576.141L868.329 678.595C866.894 681.913 865.036 685.05 862.796 687.934C860.401 691.002 857.686 693.829 854.691 696.371C848.634 701.565 840.816 706.395 831.456 710.723C821.318 715.286 810.805 719.048 800.022 721.971C787.437 725.42 774.674 728.248 761.784 730.445C748.522 732.762 733.834 734.789 718.141 736.471C703.395 738.048 687.363 739.36 670.49 740.37C640.25 742.178 606.016 743.096 568.746 743.096ZM519.639 285.138C517.042 285.134 514.472 285.641 512.089 286.627C509.776 287.583 507.682 288.962 505.924 290.686C504.146 292.42 502.735 294.464 501.767 296.707C499.735 301.431 499.735 306.728 501.767 311.452C502.735 313.695 504.146 315.739 505.924 317.473C507.682 319.197 509.776 320.576 512.089 321.531C514.473 322.513 517.042 323.02 519.639 323.02C522.236 323.02 524.805 322.513 527.189 321.531C529.502 320.576 531.597 319.197 533.354 317.473C535.131 315.739 536.543 313.695 537.511 311.452C539.543 306.728 539.543 301.431 537.511 296.707C536.543 294.464 535.131 292.42 533.354 290.686C531.596 288.962 529.502 287.583 527.189 286.627C524.806 285.641 522.236 285.134 519.639 285.138Z" fill="url(#paint0_angular_306_34)"/>
<path d="M568.746 743.096H568.701C534.148 743.096 496.9 742.338 454.814 740.779C418.867 739.448 385.307 737.744 358.342 736.374L358.192 736.365H358.146H358.136C331.777 735.027 310.953 733.968 297.254 733.696C297.489 726.657 297.728 720.33 298.275 714.184C298.745 708.063 299.747 701.989 301.271 696.026C302.665 690.484 304.977 685.191 308.122 680.345C311.345 675.49 315.642 671.367 320.712 668.264C330.684 662.121 345.018 658.871 357.666 656.004H357.672H357.688C364.787 654.394 371.491 652.874 376.254 651.057C381.534 649.042 383.952 646.851 383.864 644.162C383.712 639.543 376.048 632.883 365.441 623.671L365.436 623.667C358.298 617.468 349.415 609.751 340.717 600.738C331.307 591.175 323.081 580.611 316.201 569.254C309.822 558.308 304.643 546.764 300.745 534.805C296.548 522.055 293.319 509.033 291.082 495.841C288.778 482.408 287.261 468.864 286.537 455.27C285.816 442.144 285.781 428.932 286.429 416.003C287.017 404.084 288.237 392.2 290.086 380.398C291.782 369.66 294.055 358.884 296.852 348.371C299.441 338.628 302.459 329.075 306.076 319.165C309.263 310.429 312.871 301.551 317.104 292.026C324.622 275.123 333.156 258.647 342.662 242.682C351.065 228.508 360.303 214.801 370.331 201.625C380.075 188.883 388.947 178.625 397.442 170.253C405.767 161.851 415.144 154.46 425.362 148.246C429.594 145.74 433.975 143.474 438.484 141.458C442.698 139.564 447.169 137.777 452.151 136.005C461.411 132.712 471.03 129.978 480.331 127.341L480.479 127.299C483.115 126.55 485.836 125.775 488.514 125C487.202 132.688 485.898 140.322 484.602 147.901L482.69 159.094L482.312 161.298L480.563 171.536C478.713 182.366 476.859 193.22 474.981 204.211C482.74 205.307 489.836 206.541 496.685 207.982C504.263 209.578 511.626 211.443 519.187 213.682C525.98 215.694 534.749 218.527 542.335 222.603C545.817 224.432 549.061 226.645 552.001 229.197C554.813 231.647 557.143 234.556 558.882 237.789C561.863 243.471 562.893 250.255 563.982 257.439V257.45C565.359 266.533 566.784 275.925 572.413 283.42C575.131 286.919 578.411 289.985 582.132 292.507C586.342 295.402 590.81 297.94 595.484 300.092C605.736 304.949 618.269 309.24 628.339 312.689L628.351 312.693C624.581 320.223 621.43 326.474 618.08 332.667C614.175 339.884 610.6 345.861 607.151 350.943C603.582 356.339 599.468 361.39 594.868 366.022C592.734 368.138 590.439 370.101 588.003 371.895C585.664 373.614 583.166 375.124 580.537 376.406C570.253 381.381 558.245 382.325 546.636 383.239C540.887 383.59 535.161 384.226 529.481 385.142C526.835 385.603 524.227 386.248 521.679 387.071C519.233 387.858 516.885 388.902 514.679 390.182C509.903 392.998 505.989 396.966 503.329 401.685C502.088 403.875 501.214 406.237 500.74 408.685C500.287 410.989 500.334 413.357 500.876 415.643C501.319 417.436 502.115 419.134 503.222 420.644C504.463 422.311 506.013 423.747 507.796 424.882C511.893 427.544 517.547 429.192 524.603 429.78C526.689 429.952 529.006 430.038 531.488 430.038C538.762 430.038 547.706 429.321 559.635 427.78C570.305 426.402 582.083 424.531 594.549 422.552C598.467 421.929 601.779 421.404 605.205 420.867C633.494 416.434 666.201 411.699 696.353 411.699H696.913C727.184 411.742 757.106 417.877 784.723 429.705C797.093 435.002 808.809 441.593 819.655 449.356C829.458 456.32 838.241 464.503 845.771 473.687C852.33 481.763 858.179 490.342 863.258 499.336C867.809 507.422 871.642 515.858 874.715 524.554C879.963 539.363 883.279 555.269 885.47 576.141L868.329 678.595C866.894 681.913 865.036 685.05 862.796 687.934C860.401 691.002 857.686 693.829 854.691 696.371C848.634 701.565 840.816 706.395 831.456 710.723C821.318 715.286 810.805 719.048 800.022 721.971C787.437 725.42 774.674 728.248 761.784 730.445C748.522 732.762 733.834 734.789 718.141 736.471C703.395 738.048 687.363 739.36 670.49 740.37C640.25 742.178 606.016 743.096 568.746 743.096ZM519.639 285.138C517.042 285.134 514.472 285.641 512.089 286.627C509.776 287.583 507.682 288.962 505.924 290.686C504.146 292.42 502.735 294.464 501.767 296.707C499.735 301.431 499.735 306.728 501.767 311.452C502.735 313.695 504.146 315.739 505.924 317.473C507.682 319.197 509.776 320.576 512.089 321.531C514.473 322.513 517.042 323.02 519.639 323.02C522.236 323.02 524.805 322.513 527.189 321.531C529.502 320.576 531.597 319.197 533.354 317.473C535.131 315.739 536.543 313.695 537.511 311.452C539.543 306.728 539.543 301.431 537.511 296.707C536.543 294.464 535.131 292.42 533.354 290.686C531.596 288.962 529.502 287.583 527.189 286.627C524.806 285.641 522.236 285.134 519.639 285.138Z" fill="url(#paint1_linear_306_34)"/>
<path fill-rule="evenodd" clip-rule="evenodd" d="M511.069 899.001C352.238 899.001 203.76 841.684 143.888 749.194C112.827 701.214 120.097 687.754 165.54 718.2C235.576 765.112 331.636 793.964 437.994 793.964C652.062 793.964 825.924 677.027 825.924 532.233C825.924 512.591 822.054 493.817 816.001 475.41C867.621 519.945 899 575.429 899 636.409C899 781.213 725.139 899.001 511.069 899.001Z" fill="url(#paint2_angular_306_34)"/>
<path fill-rule="evenodd" clip-rule="evenodd" d="M511.069 899.001C352.238 899.001 203.76 841.684 143.888 749.194C112.827 701.214 120.097 687.754 165.54 718.2C235.576 765.112 331.636 793.964 437.994 793.964C652.062 793.964 825.924 677.027 825.924 532.233C825.924 512.591 822.054 493.817 816.001 475.41C867.621 519.945 899 575.429 899 636.409C899 781.213 725.139 899.001 511.069 899.001Z" fill="url(#paint3_linear_306_34)"/>
</g>
<defs>
<filter id="filter0_d_306_34" x="89" y="97" width="846" height="846" filterUnits="userSpaceOnUse" color-interpolation-filters="sRGB">
<feFlood flood-opacity="0" result="BackgroundImageFix"/>
<feColorMatrix in="SourceAlpha" type="matrix" values="0 0 0 0 0 0 0 0 0 0 0 0 0 0 0 0 0 0 127 0" result="hardAlpha"/>
<feOffset dy="8"/>
<feGaussianBlur stdDeviation="5"/>
<feComposite in2="hardAlpha" operator="out"/>
<feColorMatrix type="matrix" values="0 0 0 0 0 0 0 0 0 0 0 0 0 0 0 0 0 0 0.3 0"/>
<feBlend mode="normal" in2="BackgroundImageFix" result="effect1_dropShadow_306_34"/>
<feBlend mode="normal" in="SourceGraphic" in2="effect1_dropShadow_306_34" result="shape"/>
</filter>
<filter id="filter1_d_306_34" x="121" y="125" width="782" height="782.001" filterUnits="userSpaceOnUse" color-interpolation-filters="sRGB">
<feFlood flood-opacity="0" result="BackgroundImageFix"/>
<feColorMatrix in="SourceAlpha" type="matrix" values="0 0 0 0 0 0 0 0 0 0 0 0 0 0 0 0 0 0 127 0" result="hardAlpha"/>
<feOffset dy="4"/>
<feGaussianBlur stdDeviation="2"/>
<feComposite in2="hardAlpha" operator="out"/>
<feColorMatrix type="matrix" values="0 0 0 0 0 0 0 0 0 0 0 0 0 0 0 0 0 0 0.25 0"/>
<feBlend mode="normal" in2="BackgroundImageFix" result="effect1_dropShadow_306_34"/>
<feBlend mode="normal" in="SourceGraphic" in2="effect1_dropShadow_306_34" result="shape"/>
</filter>
<radialGradient id="paint0_angular_306_34" cx="0" cy="0" r="1" gradientUnits="userSpaceOnUse" gradientTransform="translate(576.727 434.048) rotate(90) scale(309.048 290.758)">
<stop offset="0.197848" stop-color="#FBFBFD"/>
<stop offset="0.336856" stop-color="#C8D4DA"/>
<stop offset="0.434957" stop-color="white"/>
<stop offset="0.532623" stop-color="#AEC0CE"/>
<stop offset="0.606182" stop-color="#E3E9EE"/>
<stop offset="0.649367" stop-color="#EDF1F4"/>
<stop offset="0.685762" stop-color="#FAFBFC"/>
<stop offset="0.729277" stop-color="#D6DFE6"/>
<stop offset="0.755295" stop-color="#B8C9D3"/>
</radialGradient>
<linearGradient id="paint1_linear_306_34" x1="585.719" y1="125" x2="585.719" y2="743.096" gradientUnits="userSpaceOnUse">
<stop stop-color="#F8440D"/>
<stop offset="1" stop-color="#FF721A"/>
</linearGradient>
<radialGradient id="paint2_angular_306_34" cx="0" cy="0" r="1" gradientUnits="userSpaceOnUse" gradientTransform="translate(500.39 687.205) rotate(90) scale(211.795 375.39)">
<stop offset="0.197848" stop-color="#FBFBFD"/>
<stop offset="0.336856" stop-color="#C8D4DA"/>
<stop offset="0.434957" stop-color="white"/>
<stop offset="0.532623" stop-color="#AEC0CE"/>
<stop offset="0.606182" stop-color="#E3E9EE"/>
<stop offset="0.649367" stop-color="#EDF1F4"/>
<stop offset="0.685762" stop-color="#FAFBFC"/>
<stop offset="0.729277" stop-color="#D6DFE6"/>
<stop offset="0.755295" stop-color="#B8C9D3"/>
</radialGradient>
<linearGradient id="paint3_linear_306_34" x1="512" y1="475.41" x2="512" y2="899.001" gradientUnits="userSpaceOnUse">
<stop stop-color="#F8440D"/>
<stop offset="1" stop-color="#FF721A"/>
</linearGradient>
</defs>
</svg>
